<?xml version="1.0" encoding="UTF-8" standalone="no"?>
<!-- Uploaded to: SVG Repo, www.svgrepo.com, Generator: SVG Repo Mixer Tools -->

<svg
   width="800px"
   height="800px"
   viewBox="0 0 24 24"
   fill="none"
   version="1.1"
   id="svg1"
   sodipodi:docname="notebook-minimalistic-svgrepo-com.svg"
   inkscape:version="1.4.2 (ebf0e940d0, 2025-05-08)"
   xmlns:inkscape="http://www.inkscape.org/namespaces/inkscape"
   xmlns:sodipodi="http://sodipodi.sourceforge.net/DTD/sodipodi-0.dtd"
   xmlns="http://www.w3.org/2000/svg"
   xmlns:svg="http://www.w3.org/2000/svg">
  <defs
     id="defs1" />
  <sodipodi:namedview
     id="namedview1"
     pagecolor="#505050"
     bordercolor="#ffffff"
     borderopacity="1"
     inkscape:showpageshadow="0"
     inkscape:pageopacity="0"
     inkscape:pagecheckerboard="1"
     inkscape:deskcolor="#505050"
     inkscape:zoom="0.500625"
     inkscape:cx="220.72409"
     inkscape:cy="550.31211"
     inkscape:window-width="1536"
     inkscape:window-height="888"
     inkscape:window-x="0"
     inkscape:window-y="0"
     inkscape:window-maximized="1"
     inkscape:current-layer="svg1" />
  <path
     fill-rule="evenodd"
     clip-rule="evenodd"
     d="M 22.75,4.93323 C 22.75,3.46992 21.5847,2.21498 20.0559,2.26824 18.9175,2.30789 17.4296,2.4263 16.2849,2.76899 15.2899,3.06687 14.1706,3.64872 13.2982,4.15366 12.4801,4.62712 11.4617,4.65074 10.6328,4.21248 9.63736,3.68609 8.32766,3.06215 7.19136,2.7623 6.23055,2.50876 5.01517,2.38698 4.02841,2.32634 2.47017,2.23057 1.25,3.49868 1.25,4.99784 V 16.1436 c 0,1.5362 1.24378,2.7356 2.71804,2.8278 0.95876,0.06 2.03762,0.1753 2.8406,0.3872 0.99256,0.2619 2.21996,0.8443 3.21096,1.3725 1.2333,0.6574 2.7275,0.6574 3.9608,0 0.991,-0.5282 2.2184,-1.1106 3.211,-1.3725 0.8029,-0.2119 1.8818,-0.3272 2.8406,-0.3872 1.4742,-0.0922 2.718,-1.2916 2.718,-2.8278 z M 20.1081,3.76733 C 20.7229,3.74591 21.25,4.25164 21.25,4.93323 V 16.1436 c 0,0.6858 -0.5683,1.2842 -1.3117,1.3307 -0.9801,0.0613 -2.1792,0.1831 -3.1297,0.4339 -1.1703,0.3089 -1.132642,1.261525 -2.140542,1.798825 -0.1683,0.0897 -2.496023,0.213056 -2.676523,0.264656 L 11.499984,5.9844434 C 11.952284,5.8939034 13.6421,5.68771 14.0495,5.45191 14.9,4.95972 15.8949,4.45152 16.7151,4.20597 17.6643,3.92182 18.9892,3.8063 20.1081,3.76733 Z M 11.499984,5.9844434 C 11.044984,5.9136934 10.349,5.75918 9.93167,5.53851 8.95486,5.022 7.77076,4.46654 6.80864,4.21266 5.99643,3.99833 4.90238,3.88288 3.93639,3.82351 3.30243,3.78455 2.75,4.30065 2.75,4.99784 V 16.1436 c 0,0.6858 0.56831,1.2842 1.31168,1.3307 0.98008,0.0613 2.17924,0.1831 3.12968,0.4339 1.17034,0.3089 1.1775954,1.141675 2.1855254,1.678975 0.1683,0.0897 2.4341496,0.332906 2.6146496,0.384506 z"
     fill="#1C274D"
     id="path1"
     style="fill:#8b8b8b;fill-opacity:1"
     sodipodi:nodetypes="sccccscssccccccsscssccccccccccccssccccc" />
  <path
     fill-rule="evenodd"
     clip-rule="evenodd"
     d="m 6.4568979,8.4188864 c 0,-1.1051645 0.779386,-1.960971 1.7470211,-2.5084457 C 9.199967,5.3468873 10.542747,5.0138379 12,5.0138379 c 1.457233,0 2.800057,0.3330494 3.796105,0.8966028 0.967604,0.5474747 1.746997,1.4032812 1.746997,2.5084457 v 8.6022276 c 0,1.10517 -0.779393,1.960948 -1.746997,2.508408 -0.996048,0.56359 -2.338872,0.89664 -3.796105,0.89664 -1.457253,0 -2.800033,-0.33305 -3.796081,-0.89664 -0.9676351,-0.54746 -1.7470211,-1.403238 -1.7470211,-2.508408 z m 0.950246,0 c 0,-0.4784623 0.355121,-1.056361 1.2217391,-1.5466877 C 9.4670751,6.3979584 10.658284,6.089116 12,6.089116 c 1.341748,0 2.532911,0.3088424 3.371093,0.7830827 0.866624,0.4903267 1.221762,1.0682254 1.221762,1.5466877 0,0.4784624 -0.355138,1.0563615 -1.221762,1.5466886 -0.838182,0.47424 -2.029345,0.783082 -3.371093,0.783082 -1.341716,0 -2.5329249,-0.308842 -3.371117,-0.783082 C 7.7622649,9.475248 7.4071439,8.8973488 7.4071439,8.4188864 Z m 0,8.6022276 c 0,0.478426 0.355121,1.056352 1.2217391,1.546678 0.8381921,0.474271 2.029401,0.783092 3.371117,0.783092 1.341748,0 2.532911,-0.308821 3.371093,-0.783092 0.866624,-0.490326 1.221762,-1.068251 1.221762,-1.546678 v -2.360451 c -0.238639,0.215414 -0.509394,0.405164 -0.79675,0.567747 -0.996048,0.563588 -2.338872,0.896638 -3.796105,0.896638 -1.457253,0 -2.800033,-0.33305 -3.796081,-0.896638 C 7.9165649,15.065835 7.6458139,14.876077 7.4071439,14.660663 Z m 9.1857111,-6.66155 v 2.360437 c 0,0.478425 -0.355138,1.056352 -1.221762,1.546681 C 14.532911,14.740952 13.341748,15.04977 12,15.04977 c -1.341716,0 -2.5329249,-0.308818 -3.371117,-0.783088 C 7.762265,13.776353 7.407144,13.198427 7.407144,12.720001 v -2.360437 c 0.23867,0.215414 0.509421,0.405185 0.796775,0.567768 0.996048,0.563554 2.338828,0.896603 3.796081,0.896603 1.457233,0 2.800057,-0.333049 3.796105,-0.896603 0.287357,-0.162577 0.558111,-0.352354 0.79675,-0.567768 z"
     fill="#1C274C"
     id="path1-7"
     style="fill:#8b8b8b;fill-opacity:1;stroke:#8b8b8b;stroke-width:0.55689;stroke-dasharray:none;stroke-opacity:1" />
</svg>
