<?xml version="1.0" encoding="UTF-8" standalone="no"?>
<!-- Uploaded to: SVG Repo, www.svgrepo.com, Generator: SVG Repo Mixer Tools -->

<svg
   width="800px"
   height="800px"
   viewBox="0 0 24 24"
   fill="none"
   version="1.1"
   id="svg2"
   sodipodi:docname="book-svgrepo-com.svg"
   inkscape:version="1.4.2 (ebf0e940d0, 2025-05-08)"
   xmlns:inkscape="http://www.inkscape.org/namespaces/inkscape"
   xmlns:sodipodi="http://sodipodi.sourceforge.net/DTD/sodipodi-0.dtd"
   xmlns="http://www.w3.org/2000/svg"
   xmlns:svg="http://www.w3.org/2000/svg">
  <defs
     id="defs2" />
  <sodipodi:namedview
     id="namedview2"
     pagecolor="#505050"
     bordercolor="#ffffff"
     borderopacity="1"
     inkscape:showpageshadow="0"
     inkscape:pageopacity="0"
     inkscape:pagecheckerboard="1"
     inkscape:deskcolor="#505050"
     inkscape:zoom="0.65125"
     inkscape:cx="400.76775"
     inkscape:cy="400"
     inkscape:window-width="1920"
     inkscape:window-height="1052"
     inkscape:window-x="0"
     inkscape:window-y="0"
     inkscape:window-maximized="1"
     inkscape:current-layer="svg2" />
  <rect
     width="24"
     height="24"
     fill="white"
     id="rect1"
     style="fill:none" />
  <path
     d="M12 6.90909C10.8999 5.50893 9.20406 4.10877 5.00119 4.00602C4.72513 3.99928 4.5 4.22351 4.5 4.49965C4.5 6.54813 4.5 14.3034 4.5 16.597C4.5 16.8731 4.72515 17.09 5.00114 17.099C9.20405 17.2364 10.8999 19.0998 12 20.5M12 6.90909C13.1001 5.50893 14.7959 4.10877 18.9988 4.00602C19.2749 3.99928 19.5 4.21847 19.5 4.49461C19.5 6.78447 19.5 14.3064 19.5 16.5963C19.5 16.8724 19.2749 17.09 18.9989 17.099C14.796 17.2364 13.1001 19.0998 12 20.5M12 6.90909L12 20.5"
     stroke="#000000"
     stroke-linejoin="round"
     id="path1"
     style="stroke:#8b8b8b;stroke-opacity:1" />
  <path
     d="M19.2353 6H21.5C21.7761 6 22 6.22386 22 6.5V19.539C22 19.9436 21.5233 20.2124 21.1535 20.0481C20.3584 19.6948 19.0315 19.2632 17.2941 19.2632C14.3529 19.2632 12 21 12 21C12 21 9.64706 19.2632 6.70588 19.2632C4.96845 19.2632 3.64156 19.6948 2.84647 20.0481C2.47668 20.2124 2 19.9436 2 19.539V6.5C2 6.22386 2.22386 6 2.5 6H4.76471"
     stroke="#000000"
     stroke-linejoin="round"
     id="path2"
     style="fill:none;fill-opacity:1;stroke:#8b8b8b;stroke-opacity:1" />
</svg>
