<?xml version="1.0" encoding="UTF-8" standalone="no"?>
<!-- Uploaded to: SVG Repo, www.svgrepo.com, Generator: SVG Repo Mixer Tools -->

<svg
   width="800px"
   height="800px"
   viewBox="0 0 24 24"
   fill="none"
   version="1.1"
   id="svg1"
   sodipodi:docname="copy-svgrepo-com.svg"
   inkscape:version="1.4.2 (ebf0e940d0, 2025-05-08)"
   xmlns:inkscape="http://www.inkscape.org/namespaces/inkscape"
   xmlns:sodipodi="http://sodipodi.sourceforge.net/DTD/sodipodi-0.dtd"
   xmlns="http://www.w3.org/2000/svg"
   xmlns:svg="http://www.w3.org/2000/svg">
  <defs
     id="defs1" />
  <sodipodi:namedview
     id="namedview1"
     pagecolor="#505050"
     bordercolor="#ffffff"
     borderopacity="1"
     inkscape:showpageshadow="0"
     inkscape:pageopacity="0"
     inkscape:pagecheckerboard="1"
     inkscape:deskcolor="#505050"
     inkscape:zoom="0.45875"
     inkscape:cx="400"
     inkscape:cy="400"
     inkscape:window-width="1536"
     inkscape:window-height="888"
     inkscape:window-x="0"
     inkscape:window-y="0"
     inkscape:window-maximized="1"
     inkscape:current-layer="svg1" />
  <path
     fill-rule="evenodd"
     clip-rule="evenodd"
     d="M9.29289 3.29289C9.48043 3.10536 9.73478 3 10 3H14C15.6569 3 17 4.34315 17 6V15C17 16.6569 15.6569 18 14 18H7C5.34315 18 4 16.6569 4 15V9C4 8.73478 4.10536 8.48043 4.29289 8.29289L9.29289 3.29289ZM14 5H11V9C11 9.55228 10.5523 10 10 10H6V15C6 15.5523 6.44772 16 7 16H14C14.5523 16 15 15.5523 15 15V6C15 5.44772 14.5523 5 14 5ZM7.41421 8H9V6.41421L7.41421 8ZM19 5C19.5523 5 20 5.44772 20 6V18C20 19.6569 18.6569 21 17 21H7C6.44772 21 6 20.5523 6 20C6 19.4477 6.44772 19 7 19H17C17.5523 19 18 18.5523 18 18V6C18 5.44772 18.4477 5 19 5Z"
     fill="#000000"
     id="path1"
     style="fill:#fa994a;fill-opacity:1" />
</svg>
