<?xml version="1.0" encoding="UTF-8" standalone="no"?>
<!-- Uploaded to: SVG Repo, www.svgrepo.com, Generator: SVG Repo Mixer Tools -->

<svg
   height="800"
   width="800"
   version="1.1"
   id="_x32_"
   viewBox="0 0 512 512"
   xml:space="preserve"
   xmlns="http://www.w3.org/2000/svg"
   xmlns:svg="http://www.w3.org/2000/svg"><defs
   id="defs6"><clipPath
     clipPathUnits="userSpaceOnUse"
     id="clipPath19"><path
       id="path20"
       style="fill:#ff0000;fill-opacity:1;fill-rule:nonzero;stroke:none;stroke-width:0.64"
       d="M 0,60.1975 V 451.805 H 511.99875 V 60.1975 Z m 373.9425,207.94 c 4.40572,0.2029 9.21478,4.12128 11.18,12.40375 0.93272,3.93101 1.44645,7.94245 1.9575,11.945 0.4621,3.53072 0.71792,7.08201 0.8825,10.6375 0.23415,3.27288 0.80295,6.50099 1.26875,9.745 0.62553,3.99963 1.10446,8.02176 1.7775,12.0125 0.80939,0.7319 1.65791,1.42165 2.5625,2.05 0.70823,0.52263 1.41782,1.05902 2.14,1.57875 0.42942,-0.32597 0.8587,-0.65213 1.28875,-0.9775 3.17463,-2.29797 6.45605,-4.45245 9.5075,-6.90875 3.78915,-3.05012 7.37255,-4.35003 10.3775,-4.395 9.01484,-0.1349 12.82861,11.02603 1.415,20.11875 -0.60376,0.48099 -1.21513,0.95148 -1.8325,1.415 0.20372,0.28476 0.38636,0.57538 0.54875,0.87 0.99581,-0.13089 1.98999,-0.2719 2.98375,-0.42875 1.20119,-0.18959 2.33905,-0.29141 3.4125,-0.315 16.10169,-0.35389 17.6649,16.90032 -0.355,19.73125 -1.66934,0.26226 -3.33999,0.49951 -5.02,0.68125 -2.19142,0.33886 -4.372,0.77255 -6.4375,1.60625 -1.55387,0.47004 -2.90031,1.49975 -4.16,2.49 -1.8449,1.407 -3.16994,3.44637 -4.71875,5.14625 -1.7199,1.91476 -3.51402,3.75979 -5.29,5.62125 -13.43116,14.07756 -27.34117,0.16812 -13.8975,-13.8975 1.16146,-1.21519 2.32895,-2.42462 3.47125,-3.65875 -6.27801,0.23939 -10.15782,-4.28758 -9.12,-9.75625 -0.31566,-0.43873 -0.61878,-0.88885 -0.9075,-1.35125 -1.85247,-3.2012 -3.29462,-6.56531 -4.1625,-10.1375 -0.087,-0.0961 -0.17451,-0.19237 -0.26125,-0.28875 -2.11513,-2.3735 -4.47524,-4.51534 -6.765,-6.7175 -4.16216,-3.85657 -7.64472,-8.36064 -11.07375,-12.86 -2.04473,-2.69551 -4.0864,-5.38828 -6.0825,-8.12 -7.5333,-10.30959 -3.27435,-18.85036 3.78125,-19.05875 3.69579,-0.10916 8.15868,2.06733 12.09625,7.47375 1.16627,1.60132 2.354,3.18507 3.5475,4.765 -0.1212,-1.53211 -0.2753,-3.06144 -0.475,-4.58625 -0.45119,-3.54454 -0.89241,-7.09795 -1.7325,-10.57625 -2.56947,-10.63865 2.42801,-16.51837 8.0925,-16.2575 z" /></clipPath></defs>
<style
   type="text/css"
   id="style1">
	.st0{fill:#000000;}
</style>
<polygon
   class="st0"
   points="481.637,161.523 481.632,161.514 "
   id="polygon5" /><polygon
   class="st0"
   points="336.159,392.817 336.154,392.817 336.159,392.808 "
   id="polygon6" />
<style
   type="text/css"
   id="style1-6">
<![CDATA[
	.st0{fill:#000000;}
]]>
</style><path
   class="st0"
   d="m 492.215,208.417 c -1.225,-1.243 -2.539,-2.424 -3.87,-3.586 0.696,-3.88 1.1,-7.831 1.1,-11.844 0.004,-10.636 -2.53,-21.467 -7.808,-31.464 -6.033,-11.462 -14.969,-20.554 -25.401,-26.715 -7.297,-4.315 -15.323,-7.191 -23.642,-8.532 -2.019,-7.182 -5.185,-14.019 -9.438,-20.224 -7.08,-10.334 -17.148,-18.892 -29.467,-24.193 -8.811,-3.791 -18.058,-5.611 -27.14,-5.611 0,0 -0.28,-0.009 -0.79,0.036 -11.533,0.134 -22.759,3.161 -32.69,8.692 -3.884,-4.679 -8.376,-8.843 -13.375,-12.35 -10.956,-7.697 -24.353,-12.261 -38.687,-12.403 -0.165,-0.009 -0.364,-0.017 -0.608,-0.026 -0.031,0 -0.062,0 -0.097,0 h -0.009 -0.009 -0.004 c -0.022,0 -0.044,0 -0.066,0 -0.133,0 -0.293,0.009 -0.497,0.017 -12.482,0.098 -24.277,3.543 -34.354,9.508 -4.368,2.575 -8.354,5.673 -12.012,9.118 -10.44,-6.508 -22.777,-10.308 -35.917,-10.37 l -0.048,-0.008 h -0.311 c -0.009,0 -0.014,0 -0.022,0 -0.018,0 -0.036,0 -0.057,0 -0.16,0 -0.36,0.008 -0.613,0.026 -13.979,0.133 -27.088,4.466 -37.896,11.817 -6.264,4.253 -11.746,9.518 -16.279,15.545 -5.735,-1.553 -11.723,-2.396 -17.841,-2.396 -5.091,0 -10.254,0.577 -15.394,1.749 -15.138,3.471 -28.068,11.772 -37.334,22.861 h 0.005 c -6.503,7.768 -11.195,16.93 -13.77,26.812 -9.873,3.348 -19.177,8.959 -26.959,16.886 -0.004,0.009 -0.013,0.018 -0.022,0.027 -13.051,13.308 -19.621,30.718 -19.616,48.004 v 0.026 0.036 c 0,0 0,0.017 0,0.035 v 0.186 h 0.004 c 0.017,6.01 0.83,12.003 2.415,17.827 C 4.799,239.81 0.005,254.272 0,269.073 c -0.004,10.955 2.638,22.097 8.128,32.369 6.17,11.533 15.244,20.668 25.8,26.856 7.404,4.341 15.532,7.21 23.952,8.559 4.484,12.048 12.172,22.444 22.009,30.141 11.701,9.172 26.462,14.596 42.278,14.596 1.643,0 3.281,-0.052 4.918,-0.177 h 0.04 0.022 0.005 0.004 c 6.982,-0.506 13.672,-2.077 19.904,-4.501 4.142,6.64 9.348,12.508 15.395,17.348 11.697,9.366 26.572,14.96 42.517,15.031 0.058,0.009 0.106,0.009 0.156,0.009 0.054,0 0.106,0 0.156,0 h 0.009 c 0.005,0 0.005,0 0.005,0 h 0.013 0.071 c 0.023,0 0.032,0 0.054,0 l 0.173,-0.009 h 0.049 c 1.274,-0.009 2.553,-0.062 3.826,-0.142 h 0.018 l 0.75,-0.018 c 5.708,-0.418 11.222,-1.528 16.447,-3.249 6.583,9.775 15.75,18.022 27.092,23.492 h -0.005 c 9.57,4.616 19.78,6.827 29.8,6.827 9.756,0 19.3,-2.121 28.054,-6.046 12.722,13.512 30.661,21.627 49.957,21.646 4.231,0 8.51,-0.391 12.79,-1.199 16.438,-3.089 30.523,-11.888 40.378,-23.9 h -0.004 c 6.436,-7.821 11.067,-17.054 13.544,-27.016 11.368,-1.118 22.648,-5.078 32.618,-12.092 9.487,-6.659 16.838,-15.36 21.765,-25.072 4.928,-9.704 7.467,-20.412 7.467,-31.216 0,-7.2 -1.172,-14.428 -3.476,-21.397 5.917,-4.82 11.15,-10.698 15.323,-17.578 6.748,-11.098 9.997,-23.474 9.997,-35.638 -0.003,-17.783 -6.897,-35.229 -19.784,-48.28 z m -10.938,71.327 c -6.965,11.47 -18.192,18.609 -30.457,20.731 -3.773,0.648 -6.303,4.235 -5.656,7.998 0.648,3.774 4.231,6.304 8,5.656 2.819,-0.479 5.594,-1.181 8.315,-2.068 2.964,6.126 4.426,12.696 4.426,19.248 0.004,7.005 -1.651,13.965 -4.838,20.242 -3.192,6.278 -7.898,11.861 -14.077,16.212 -7.781,5.451 -16.615,8.053 -25.418,8.061 -0.688,0 -1.376,-0.053 -2.064,-0.088 -0.146,-1.154 -0.289,-2.299 -0.502,-3.445 v -0.009 c -1.518,-8.035 -4.643,-15.386 -8.936,-21.769 l -0.524,-0.782 -0.71,-0.613 c -5.252,-4.492 -12.217,-11.879 -17.593,-19.407 -2.694,-3.756 -4.998,-7.556 -6.547,-10.938 -1.568,-3.383 -2.286,-6.34 -2.26,-8.088 0,-0.781 0.116,-1.305 0.245,-1.66 0.137,-0.346 0.266,-0.551 0.537,-0.834 2.703,-2.699 2.703,-7.094 0,-9.793 -2.708,-2.707 -7.094,-2.707 -9.798,0 v -0.008 c -1.686,1.686 -2.96,3.719 -3.742,5.85 -0.781,2.131 -1.096,4.324 -1.096,6.446 0.026,4.803 1.478,9.348 3.52,13.858 3.095,6.73 7.711,13.415 12.696,19.514 4.692,5.736 9.686,10.876 14.156,14.818 3.076,4.741 5.323,10.086 6.433,15.972 0.466,2.477 0.723,4.936 0.759,7.306 l 0.004,0.036 c 0.005,0.32 0.009,0.631 0.009,0.95 0,10.477 -3.725,20.375 -10.13,28.179 -6.415,7.796 -15.44,13.442 -26.124,15.457 -2.796,0.525 -5.571,0.782 -8.301,0.782 -14.693,0.009 -28.286,-7.36 -36.453,-19.115 4.395,-4.457 8.141,-9.695 11.008,-15.625 3.556,-7.351 5.42,-15.129 5.762,-22.817 0.169,-3.836 -2.796,-7.067 -6.614,-7.236 -3.826,-0.168 -7.063,2.796 -7.232,6.615 -0.262,5.886 -1.673,11.781 -4.394,17.4 l -0.004,0.018 c -2.904,6.019 -6.97,11.053 -11.804,15.04 l -0.026,0.017 c -7.941,6.517 -17.992,10.104 -28.259,10.104 -6.472,0 -13.029,-1.421 -19.266,-4.422 -11.551,-5.576 -19.572,-15.43 -23.119,-26.758 l -0.005,-0.009 c -1.354,-4.298 -2.055,-8.799 -2.055,-13.335 0,-6.472 1.421,-13.024 4.434,-19.292 1.665,-3.445 0.214,-7.582 -3.232,-9.242 -3.444,-1.66 -7.586,-0.213 -9.246,3.232 -3.934,8.15 -5.811,16.806 -5.811,25.303 0,4.119 0.471,8.195 1.323,12.19 -5.411,2.956 -11.515,4.838 -18.112,5.328 h -0.013 c -1.074,0.071 -2.14,0.106 -3.187,0.106 -10.401,0 -20.038,-3.605 -27.7,-9.73 -6.668,-5.328 -11.777,-12.545 -14.507,-20.9 4.878,-4.812 8.918,-10.44 11.87,-16.682 1.633,-3.454 0.155,-7.591 -3.303,-9.225 -3.458,-1.634 -7.591,-0.16 -9.225,3.303 -2.743,5.806 -6.72,10.956 -11.617,15.084 -6.934,5.85 -15.692,9.624 -25.444,10.325 h -0.014 c -1.07,0.071 -2.135,0.115 -3.187,0.115 -22,0.009 -40.777,-16.22 -43.947,-37.971 l -0.008,-0.054 -0.009,-0.054 c -0.169,-1.029 -0.289,-2.113 -0.369,-3.231 -0.075,-1.084 -0.114,-2.149 -0.114,-3.214 0,-2.806 0.262,-5.549 0.758,-8.221 0.693,-3.765 -1.793,-7.378 -5.557,-8.08 -3.76,-0.693 -7.373,1.794 -8.07,5.558 -0.644,3.48 -0.986,7.076 -0.986,10.743 l 0.014,0.399 c -6.228,-0.693 -12.274,-2.672 -17.69,-5.85 -6.832,-4.005 -12.66,-9.855 -16.682,-17.366 -3.578,-6.694 -5.26,-13.85 -5.265,-20.926 0,-9.127 2.833,-18.093 8.075,-25.586 2.006,2.841 4.293,5.54 6.854,8.052 5.838,5.736 12.611,9.989 19.79,12.758 3.565,1.386 7.578,-0.39 8.958,-3.959 1.381,-3.569 -0.394,-7.582 -3.959,-8.959 -5.478,-2.122 -10.618,-5.344 -15.08,-9.73 l -0.009,-0.008 c -3.924,-3.845 -6.974,-8.23 -9.172,-12.927 -2.783,-5.948 -4.181,-12.403 -4.181,-18.866 0.004,-11.249 4.208,-22.426 12.691,-31.1 7.213,-7.342 16.292,-11.64 25.728,-12.927 h 0.009 0.009 l 0.026,-0.009 c 1.994,-0.266 4,-0.408 6.015,-0.399 11.245,0.009 22.444,4.218 31.114,12.696 2.734,2.672 7.12,2.628 9.797,-0.106 2.677,-2.734 2.628,-7.12 -0.106,-9.793 -11.032,-10.805 -25.338,-16.327 -39.668,-16.602 1.634,-6.632 4.75,-12.793 9.1,-17.987 6.019,-7.191 14.299,-12.518 24.157,-14.791 3.348,-0.764 6.686,-1.136 9.97,-1.136 5.806,0 11.449,1.154 16.664,3.267 -1.483,5.158 -2.299,10.601 -2.299,16.22 0,3.826 3.103,6.925 6.929,6.925 3.826,0 6.925,-3.098 6.925,-6.925 0,-6.064 1.221,-11.852 3.401,-17.108 3.346,-8.026 9.002,-14.88 16.118,-19.719 7.13,-4.838 15.684,-7.644 24.961,-7.653 13.348,0.009 25.272,5.851 33.444,15.164 l 0.014,0.009 c 6.871,7.821 11.013,18.049 11.018,29.306 0,3.826 3.098,6.925 6.929,6.925 3.827,0 6.925,-3.098 6.925,-6.925 0.005,-12.793 -4.133,-24.672 -11.142,-34.288 3.587,-4.971 8.159,-9.18 13.45,-12.305 6.623,-3.915 14.312,-6.152 22.586,-6.152 9.504,0 18.249,2.965 25.472,8.035 7.222,5.06 12.878,12.225 16.069,20.579 l -0.004,-0.008 c 1.883,4.945 2.917,10.263 2.921,15.874 0,3.826 3.099,6.926 6.926,6.926 3.826,0 6.929,-3.099 6.929,-6.926 0,-5.718 -0.857,-11.24 -2.393,-16.46 8.203,-7.644 19.092,-11.968 30.328,-11.968 5.868,0 11.817,1.172 17.57,3.64 8.022,3.454 14.463,8.949 19.057,15.643 4.59,6.685 7.298,14.56 7.756,22.692 0.044,0.835 0.071,1.678 0.071,2.521 -0.005,5.868 -1.164,11.809 -3.631,17.562 -1.51,3.516 0.111,7.59 3.626,9.099 3.516,1.518 7.59,-0.115 9.1,-3.631 2.57,-5.966 4.048,-12.154 4.549,-18.315 6.792,0.453 13.407,2.512 19.266,5.975 6.689,3.96 12.38,9.73 16.282,17.135 v 0.008 c 3.414,6.464 5.012,13.353 5.016,20.163 0,3.125 -0.36,6.214 -1.021,9.242 -4.182,-1.616 -8.475,-2.726 -12.803,-3.338 -3.787,-0.533 -7.288,2.105 -7.821,5.904 -0.533,3.783 2.104,7.289 5.895,7.822 4.346,0.613 8.63,1.865 12.74,3.8 0.728,1.181 1.802,2.166 3.174,2.752 0.857,0.364 1.745,0.542 2.624,0.55 2.556,1.705 4.883,3.614 6.96,5.727 l -0.093,-0.097 0.111,0.115 c 8.296,8.381 12.788,19.701 12.784,31.233 0.001,7.872 -2.076,15.819 -6.471,23.045 z"
   id="path6"
   clip-path="url(#clipPath19)"
   style="fill:#808080;stroke-width:1.00401;stroke-dasharray:none" /><path
   class="st0"
   d="m 417.66102,267.43283 c 2.984,-0.21793 5.26912,-2.58106 5.26912,-5.44133 v -13.00305 c 0,-2.86027 -2.28593,-5.22262 -5.26912,-5.45296 l -18.06809,-1.34482 c -1.13037,-0.0729 -2.13315,-0.76316 -2.56466,-1.78147 l -5.95499,-13.6933 c -0.43151,-1.00589 -0.24133,-2.16925 0.49491,-3.0053 l 11.78318,-13.14807 c 1.943,-2.15685 1.81542,-5.38085 -0.30474,-7.39188 l -9.63702,-9.20978 c -2.12016,-2.01182 -5.49829,-2.13278 -7.75821,-0.29083 l -13.77658,11.24563 c -0.86382,0.70265 -2.09497,0.89654 -3.13595,0.48472 l -14.34786,-5.6833 c -1.06698,-0.41183 -1.79023,-1.36965 -1.87962,-2.46009 l -1.39691,-17.23218 c -0.24136,-2.86027 -2.72964,-5.04115 -5.71363,-5.04115 h -13.6368 c -2.984,0 -5.47228,2.18166 -5.70145,5.04115 l -1.39691,17.23218 c -0.0886,1.09044 -0.82564,2.04826 -1.8918,2.46009 l -14.33567,5.6833 c -1.06698,0.41182 -2.27292,0.21793 -3.14894,-0.48472 L 291.5127,193.67004 c -2.27293,-1.84195 -5.65024,-1.72099 -7.75821,0.29083 l -9.63702,9.20978 c -2.10796,2.01181 -2.24774,5.23503 -0.30473,7.39188 l 11.78317,13.14807 c 0.73626,0.83605 0.93942,1.99941 0.49491,3.0053 l -5.94279,13.6933 c -0.43151,1.01831 -1.44731,1.70855 -2.59067,1.78147 l -18.0681,1.34482 c -2.97099,0.23034 -5.25691,2.59348 -5.25691,5.45296 v 13.00305 c 0,2.86027 2.28592,5.22263 5.25691,5.44133 l 18.0681,1.34483 c 1.14256,0.0845 2.15835,0.77557 2.59067,1.79388 l 5.94279,13.69329 c 0.44451,0.9935 0.24135,2.16924 -0.49491,2.99289 l -11.78317,13.16049 c -1.94301,2.15682 -1.80323,5.38083 0.30473,7.39187 l 9.63702,9.19739 c 2.10797,2.02341 5.48528,2.14518 7.75821,0.30322 l 13.77658,-11.25804 c 0.87602,-0.69102 2.08277,-0.88491 3.14894,-0.46068 l 14.33567,5.67168 c 1.06698,0.41182 1.80323,1.36964 1.8918,2.44767 l 1.39691,17.25623 c 0.22836,2.83546 2.71745,5.02872 5.70145,5.02872 h 13.6368 c 2.98399,0 5.47227,-2.19326 5.71363,-5.02872 l 1.39691,-17.25623 c 0.0886,-1.0788 0.81264,-2.03585 1.87962,-2.44767 l 14.34786,-5.67168 c 1.04098,-0.42423 2.27294,-0.23034 3.13595,0.46068 l 13.77658,11.25804 c 2.25992,1.84196 5.63805,1.72098 7.75821,-0.30322 l 9.63702,-9.19739 c 2.12016,-2.01181 2.24774,-5.23505 0.30474,-7.39187 l -11.78318,-13.16049 c -0.73624,-0.82443 -0.92722,-1.99939 -0.49491,-2.99289 l 5.95499,-13.69329 c 0.43151,-1.01831 1.4351,-1.70858 2.56466,-1.79388 z m -79.07978,15.26924 c -7.61845,0 -14.78019,-2.83544 -20.16389,-7.97354 -5.38369,-5.13808 -8.34248,-11.97311 -8.34248,-19.23157 0,-7.27088 2.95879,-14.1059 8.34248,-19.24399 5.3837,-5.1505 12.54544,-7.97354 20.16389,-7.97354 7.61843,0 14.78017,2.82382 20.16386,7.97354 5.3837,5.13809 8.34249,11.97311 8.34249,19.24399 0,7.25846 -2.95879,14.09349 -8.34249,19.23157 -5.38369,5.1381 -12.54543,7.97354 -20.16386,7.97354 z"
   id="path2"
   style="fill:none;fill-opacity:1;stroke:#808080;stroke-width:10.9272;stroke-dasharray:none;stroke-opacity:1" /><path
   class="st0"
   d="m 244.58669,228.27257 c 2.09115,-0.15473 3.69254,-1.83253 3.69254,-3.8633 v -9.23206 c 0,-2.03077 -1.60195,-3.70802 -3.69254,-3.87156 l -12.66191,-0.95482 c -0.79215,-0.0517 -1.49489,-0.54183 -1.79729,-1.26483 l -4.17318,-9.72213 c -0.3024,-0.71418 -0.16913,-1.54015 0.34682,-2.13374 l 8.25752,-9.33503 c 1.36163,-1.53135 1.27223,-3.82036 -0.21356,-5.24818 l -6.75351,-6.53887 c -1.48579,-1.42838 -3.85314,-1.51426 -5.43687,-0.20649 l -9.65447,7.98431 c -0.60535,0.49888 -1.46813,0.63654 -2.19764,0.34415 l -10.05481,-4.0351 c -0.74773,-0.29239 -1.25458,-0.97244 -1.31722,-1.74664 l -0.97894,-12.23472 c -0.16914,-2.03077 -1.9129,-3.57917 -4.00405,-3.57917 h -9.55651 c -2.09115,0 -3.83491,1.54896 -3.99551,3.57917 l -0.97894,12.23472 c -0.0621,0.7742 -0.5786,1.45425 -1.32575,1.74664 l -10.04628,4.0351 c -0.74772,0.29239 -1.59283,0.15473 -2.20674,-0.34415 l -9.65447,-7.98431 c -1.59284,-1.30777 -3.95962,-1.22189 -5.43686,0.20649 l -6.75352,6.53887 c -1.47723,1.42837 -1.57519,3.71683 -0.21355,5.24818 l 8.25751,9.33503 c 0.51596,0.59359 0.65834,1.41956 0.34683,2.13374 l -4.16464,9.72213 c -0.3024,0.723 -1.01426,1.21306 -1.81551,1.26483 l -12.66192,0.95482 c -2.08204,0.16354 -3.68398,1.84135 -3.68398,3.87156 v 9.23206 c 0,2.03077 1.60194,3.70803 3.68398,3.8633 l 12.66192,0.95482 c 0.80069,0.06 1.51254,0.55065 1.81551,1.27364 l 4.16464,9.72213 c 0.31151,0.70538 0.16913,1.54014 -0.34683,2.12493 l -8.25751,9.34384 c -1.36164,1.53133 -1.26368,3.82035 0.21355,5.24818 l 6.75352,6.53007 c 1.47724,1.43661 3.84402,1.52306 5.43686,0.21528 l 9.65447,-7.99312 c 0.61391,-0.49062 1.45958,-0.62828 2.20674,-0.32708 l 10.04628,4.02685 c 0.74773,0.29239 1.26368,0.97244 1.32575,1.73783 l 0.97894,12.25179 c 0.16003,2.01315 1.90436,3.57035 3.99551,3.57035 h 9.55651 c 2.09115,0 3.83491,-1.5572 4.00405,-3.57035 l 0.97894,-12.25179 c 0.0621,-0.76594 0.56949,-1.44544 1.31722,-1.73783 l 10.05481,-4.02685 c 0.72951,-0.3012 1.59285,-0.16354 2.19764,0.32708 l 9.65447,7.99312 c 1.58373,1.30778 3.95108,1.22189 5.43687,-0.21528 l 6.75351,-6.53007 c 1.48579,-1.42837 1.57519,-3.71685 0.21356,-5.24818 l -8.25752,-9.34384 c -0.51595,-0.58534 -0.64978,-1.41955 -0.34682,-2.12493 l 4.17318,-9.72213 c 0.3024,-0.72299 1.00571,-1.21308 1.79729,-1.27364 z m -55.41821,10.84104 c -5.33892,0 -10.35779,-2.01314 -14.13063,-5.66115 -3.77282,-3.64799 -5.84631,-8.50081 -5.84631,-13.65426 0,-5.16227 2.07349,-10.01508 5.84631,-13.66309 3.77284,-3.65681 8.79171,-5.66115 14.13063,-5.66115 5.33891,0 10.35777,2.00489 14.1306,5.66115 3.77284,3.64801 5.84633,8.50082 5.84633,13.66309 0,5.15345 -2.07349,10.00627 -5.84633,13.65426 -3.77283,3.64801 -8.79169,5.66115 -14.1306,5.66115 z"
   id="path2-7"
   style="fill:none;fill-opacity:1;stroke:#808080;stroke-width:7.70778;stroke-dasharray:none;stroke-opacity:1" /></svg>
