<?xml version="1.0" encoding="UTF-8" standalone="no"?>
<!-- Created with Inkscape (http://www.inkscape.org/) -->

<svg
   width="93mm"
   height="93mm"
   viewBox="0 0 93 93"
   version="1.1"
   id="svg1"
   sodipodi:docname="ausma.ai_simple_logo_final_005.svg"
   inkscape:version="1.4.2 (ebf0e940d0, 2025-05-08)"
   inkscape:export-filename="png/ausma.ai_simple_logo_final_005.png"
   inkscape:export-xdpi="96"
   inkscape:export-ydpi="96"
   xmlns:inkscape="http://www.inkscape.org/namespaces/inkscape"
   xmlns:sodipodi="http://sodipodi.sourceforge.net/DTD/sodipodi-0.dtd"
   xmlns="http://www.w3.org/2000/svg"
   xmlns:svg="http://www.w3.org/2000/svg">
  <sodipodi:namedview
     id="namedview1"
     pagecolor="#505050"
     bordercolor="#ffffff"
     borderopacity="1"
     inkscape:showpageshadow="0"
     inkscape:pageopacity="0"
     inkscape:pagecheckerboard="1"
     inkscape:deskcolor="#505050"
     inkscape:document-units="mm"
     inkscape:zoom="0.70710678"
     inkscape:cx="4.2426407"
     inkscape:cy="146.3711"
     inkscape:window-width="1536"
     inkscape:window-height="888"
     inkscape:window-x="0"
     inkscape:window-y="0"
     inkscape:window-maximized="1"
     inkscape:current-layer="g30"
     showguides="true">
    <inkscape:page
       x="0"
       y="0"
       width="93"
       height="93"
       id="page2"
       margin="0"
       bleed="0" />
  </sodipodi:namedview>
  <defs
     id="defs1" />
  <g
     id="g30"
     inkscape:groupmode="layer"
     style="display:inline">
    <path
       style="display:inline;fill:#8b8b8b;fill-opacity:1;fill-rule:evenodd;stroke:none;stroke-width:1.7;stroke-opacity:1"
       d="m 79.913103,52.988627 c 1.12495,-5.018977 2.05584,-19.132902 -9.70096,-30.58521 -5.98043,-5.825546 -14.51503,-9.64866 -24.52739,-9.577195 -10.60434,0.07569 -21.69992,6.237467 -27.32582,14.967097 -13.8511298,21.492619 1.04071,39.566997 1.04071,39.566997 0,0 8.99081,-9.029979 27.3024,-9.463261 15.46924,-0.366027 26.32115,9.502718 26.32115,9.502718 l -1.48357,-5.94611 5.82548,-0.632742 c 0,0 -8.84237,-11.159935 -30.10785,-11.216379 -17.46007,-0.04634 -26.89572,6.89695 -26.89572,6.89695 0,0 -5.20265,-11.600691 2.35645,-24.23418 4.52338,-7.55991 13.80042,-13.088051 22.82937,-13.316858 7.61117,-0.192877 15.3288,2.924158 20.60989,8.077394 9.73998,9.504181 8.17283,21.917653 8.17283,21.917653 z"
       id="path8"
       sodipodi:nodetypes="cssscscccscssscc" />
    <ellipse
       style="fill:none;fill-rule:evenodd;stroke:#8b8b8b;stroke-width:6;stroke-dasharray:none;stroke-opacity:1"
       id="path37"
       cx="46.5"
       cy="46.5"
       rx="42.20652"
       ry="42.206524" />
  </g>
</svg>
