<?xml version="1.0" encoding="UTF-8" standalone="no"?>
<!-- Created with Inkscape (http://www.inkscape.org/) -->

<svg
   width="135mm"
   height="27mm"
   viewBox="0 0 135 27"
   version="1.1"
   id="svg1"
   sodipodi:docname="ausma3.svg"
   inkscape:version="1.4.2 (ebf0e940d0, 2025-05-08)"
   xmlns:inkscape="http://www.inkscape.org/namespaces/inkscape"
   xmlns:sodipodi="http://sodipodi.sourceforge.net/DTD/sodipodi-0.dtd"
   xmlns="http://www.w3.org/2000/svg"
   xmlns:svg="http://www.w3.org/2000/svg">
  <sodipodi:namedview
     id="namedview1"
     pagecolor="#505050"
     bordercolor="#ffffff"
     borderopacity="1"
     inkscape:showpageshadow="0"
     inkscape:pageopacity="0"
     inkscape:pagecheckerboard="1"
     inkscape:deskcolor="#505050"
     inkscape:document-units="mm"
     showguides="true"
     inkscape:zoom="1.2097783"
     inkscape:cx="417.84515"
     inkscape:cy="56.621944"
     inkscape:window-width="1920"
     inkscape:window-height="1052"
     inkscape:window-x="0"
     inkscape:window-y="0"
     inkscape:window-maximized="1"
     inkscape:current-layer="layer1" />
  <defs
     id="defs1">
    <rect
       x="105.80451"
       y="365.3562"
       width="628.21423"
       height="279.39001"
       id="rect1" />
  </defs>
  <g
     inkscape:label="Layer 1"
     inkscape:groupmode="layer"
     id="layer1">
    <path
       d="m 11.209339,25.628137 q -2.484433,0 -4.486813,-1.18659 -1.965298,-1.1866 -3.114812,-3.18898 -1.149514,-2.03946 -1.149514,-4.59805 0,-2.52152 1.149514,-4.56098 1.149514,-2.03946 3.114812,-3.22606 1.965299,-1.22367 4.412651,-1.22367 2.00238,0 3.559786,0.7787 1.594487,0.74162 2.595677,2.11362 1.038271,1.372 1.33492,3.26314 v 5.63633 q -0.33373,1.89113 -1.372001,3.30022 -1.00119,1.372 -2.558596,2.1507 -1.520325,0.74162 -3.485624,0.74162 z m 0.259568,-1.77989 q 2.966488,0 4.7093,-1.9653 1.779893,-2.00238 1.779893,-5.22843 0,-2.18779 -0.815784,-3.78228 -0.778704,-1.63157 -2.261948,-2.52151 -1.483244,-0.92703 -3.448542,-0.92703 -2.03946,0 -3.633948,0.92703 -1.557406,0.92703 -2.484434,2.55859 -0.889946,1.63157 -0.889946,3.70811 0,2.11363 0.889946,3.7452 0.927028,1.63156 2.521515,2.55859 1.594488,0.92703 3.633948,0.92703 z m 6.415031,1.40908 v -4.63514 l 0.407892,-4.22724 -0.407892,-4.19017 v -4.19016 h 1.891136 v 17.24271 z"
       id="text23"
       style="font-size:37.0811px;font-family:Outfit;-inkscape-font-specification:'Outfit, @wght=200';font-variation-settings:'wght' 200;text-align:center;text-anchor:middle;fill:#15d2bc;fill-rule:evenodd;stroke:#15d2bc;stroke-width:1.2"
       aria-label="a" />
    <path
       d="m 29.888,25.564067 q -2.076542,0 -3.70811,-0.96411 -1.631569,-0.96411 -2.558596,-2.66984 -0.889947,-1.70573 -0.889947,-3.93059 V 7.950547 h 1.891136 v 9.97481 q 0,1.74282 0.630379,3.07773 0.66746,1.29784 1.854055,2.03947 1.186595,0.74162 2.781083,0.74162 2.37319,0 3.782272,-1.59449 1.446163,-1.63157 1.446163,-4.26433 v -9.97481 h 1.891136 v 10.04898 q 0,2.22486 -0.927028,3.93059 -0.889946,1.70573 -2.521514,2.66984 -1.594488,0.96411 -3.671029,0.96411 z"
       id="text24"
       style="font-size:37.0811px;font-family:Outfit;-inkscape-font-specification:'Outfit, @wght=200';font-variation-settings:'wght' 200;text-align:center;text-anchor:middle;fill:#15d2bc;fill-rule:evenodd;stroke:#15d2bc;stroke-width:1.2"
       aria-label="u" />
    <path
       d="m 45.754092,25.537497 c -0.939388,0 -1.829334,-0.1236 -2.669839,-0.37081 -0.815785,-0.27193 -1.569767,-0.64274 -2.261948,-1.11243 -0.667459,-0.46969 -1.260757,-1.01355 -1.779892,-1.63157 l 1.260757,-1.26076 c 0.692181,0.91467 1.495605,1.59449 2.410272,2.03946 0.939387,0.42025 1.965298,0.63038 3.077731,0.63038 1.285478,0 2.299028,-0.25957 3.04065,-0.7787 0.741622,-0.51914 1.112433,-1.2484 1.112433,-2.18779 0,-0.84051 -0.234847,-1.49561 -0.704541,-1.9653 -0.469694,-0.49441 -1.087712,-0.87758 -1.854055,-1.14951 -0.741622,-0.27193 -1.532685,-0.53149 -2.37319,-0.7787 -0.815784,-0.24721 -1.606848,-0.54386 -2.373191,-0.88995 -0.741622,-0.34609 -1.34728,-0.82815 -1.816974,-1.44616 -0.469693,-0.61802 -0.70454,-1.44617 -0.70454,-2.48444 0,-0.91467 0.234847,-1.71809 0.70454,-2.41027 0.469694,-0.69218 1.124794,-1.22368 1.965299,-1.59449 0.865225,-0.39553 1.878775,-0.59329 3.04065,-0.59329 1.285478,0 2.434992,0.22249 3.448542,0.66746 0.02676,0.0349 0.672641,0.24762 2.26905,1.18657 l -0.953616,1.49272 c -0.795133,-0.47348 -1.216551,-0.67692 -2.057056,-1.04773 -0.840505,-0.39553 -1.779892,-0.59329 -2.818163,-0.59329 -1.236037,0 -2.175425,0.25957 -2.818164,0.7787 -0.642739,0.51913 -0.964109,1.18659 -0.964109,2.00238 0,0.76634 0.234847,1.372 0.704541,1.81697 0.469694,0.44497 1.075352,0.79106 1.816974,1.03827 0.766343,0.24721 1.557406,0.49442 2.373191,0.74163 0.840505,0.22249 1.631568,0.51913 2.37319,0.88994 0.766343,0.37081 1.384361,0.87759 1.854055,1.52033 0.469696,0.64274 0.704544,1.52033 0.704544,2.63276 0,1.48324 -0.543857,2.66983 -1.631571,3.55978 -1.087713,0.86523 -2.546236,1.29784 -4.37557,1.29784 z"
       id="text25"
       style="font-size:37.0811px;font-family:Outfit;-inkscape-font-specification:'Outfit, @wght=200';font-variation-settings:'wght' 200;text-align:center;text-anchor:middle;fill:#15d2bc;fill-rule:evenodd;stroke:#15d2bc;stroke-width:1.2"
       aria-label="s"
       sodipodi:nodetypes="scccccsssccccssscsccccsssscccsscs" />
    <path
       d="m 54.83651,25.264722 v -10.36354 h 1.891128 v 10.36354 z m 12.088371,0 v -10.71644 c 0,-1.55741 -0.469687,-2.8058 -1.409074,-3.74519 -0.914664,-0.9393899 -2.088888,-1.4090799 -3.522689,-1.4090799 -0.964104,0 -1.841678,0.21013 -2.632745,0.6303799 -0.791054,0.42025 -1.433791,1.01354 -1.928198,1.77989 -0.469687,0.76634 -0.704537,1.65629 -0.704537,2.66984 l -1.893588,-0.27717 c 0,-1.33492 0.672064,-2.58258 1.454281,-3.62231 0.686607,-0.9126299 1.672811,-1.6109999 2.701235,-2.1076599 1.042044,-0.50323 2.138338,-0.81578 3.374359,-0.81578 1.236034,0 2.336098,0.27193 3.300202,0.81578 0.964104,0.54385 1.730441,1.3102 2.299022,2.2990299 0.56856,0.98883 0.85285,2.1507 0.85285,3.48562 v 11.01309 z m 12.088428,0 v -10.71644 c 0,-1.55741 -0.46969,-2.8058 -1.40908,-3.74519 -0.91467,-0.9393899 -2.08891,-1.4090799 -3.52271,-1.4090799 -0.96411,0 -1.85405,0.21013 -2.66984,0.6303799 -0.79106,0.42025 -1.42144,1.01354 -1.89113,1.77989 -0.4697,0.76634 -0.70455,1.65629 -0.70455,2.66984 l -1.149504,-0.22249 c 0.0247,-1.35964 0.333744,-2.52151 0.927024,-3.48562 0.61802,-0.9888299 1.4338,-1.7551799 2.44735,-2.2990299 1.01355,-0.54385 2.13835,-0.81578 3.37438,-0.81578 1.23604,0 2.33611,0.27193 3.30022,0.81578 0.96411,0.54385 1.73045,1.32256 2.29903,2.3361099 0.59329,0.98883 0.88994,2.1507 0.88994,3.48562 v 10.97601 z"
       id="text26"
       style="font-size:37.0811px;font-family:Outfit;-inkscape-font-specification:'Outfit, @wght=200';font-variation-settings:'wght' 200;text-align:center;text-anchor:middle;fill:#15d2bc;fill-rule:evenodd;stroke:#15d2bc;stroke-width:1.2"
       aria-label="m"
       sodipodi:nodetypes="ccccccscsscccaasssscccscscscccssscscc" />
    <path
       d="m 92.547326,25.628683 q -2.48443,0 -4.48681,-1.18659 -1.9653,-1.1866 -3.11481,-3.18898 -1.14952,-2.03946 -1.14952,-4.59805 0,-2.52152 1.14952,-4.56098 1.14951,-2.03946 3.11481,-3.22605 1.9653,-1.22368 4.41265,-1.22368 2.00238,0 3.55978,0.7787 1.59449,0.74163 2.59568,2.11363 1.03827,1.372 1.33492,3.26313 v 5.63633 q -0.33373,1.89114 -1.372,3.30022 -1.00119,1.372 -2.5586,2.1507 -1.52032,0.74162 -3.48562,0.74162 z m 0.25957,-1.77989 q 2.96649,0 4.7093,-1.9653 1.77989,-2.00238 1.77989,-5.22843 0,-2.18779 -0.81578,-3.78227 -0.77871,-1.63157 -2.26195,-2.52152 -1.48324,-0.92703 -3.44854,-0.92703 -2.03946,0 -3.63395,0.92703 -1.55741,0.92703 -2.48443,2.5586 -0.88995,1.63156 -0.88995,3.70811 0,2.11362 0.88995,3.74519 0.92702,1.63157 2.52151,2.55859 1.59449,0.92703 3.63395,0.92703 z m 6.41503,1.40908 v -4.63513 l 0.40789,-4.22725 -0.40789,-4.19016 v -4.19017 h 1.891144 v 17.24271 z"
       id="text27"
       style="font-size:37.0811px;font-family:Outfit;-inkscape-font-specification:'Outfit, @wght=200';font-variation-settings:'wght' 200;text-align:center;text-anchor:middle;fill:#15d2bc;fill-rule:evenodd;stroke:#15d2bc;stroke-width:1.2"
       aria-label="a" />
    <path
       d="m 105.82635,25.163937 q -0.74162,0 -1.26076,-0.55621 -0.51913,-0.55622 -0.51913,-1.26076 0,-0.7787 0.51913,-1.29784 0.51914,-0.51913 1.26076,-0.51913 0.7787,0 1.29784,0.51913 0.51913,0.51914 0.51913,1.29784 0,0.70454 -0.51913,1.26076 -0.51914,0.55621 -1.29784,0.55621 z"
       id="text28"
       style="font-size:37.0811px;font-family:Outfit;-inkscape-font-specification:'Outfit, @wght=200';font-variation-settings:'wght' 200;text-align:center;text-anchor:middle;fill:#15d2bc;fill-rule:evenodd;stroke:#15d2bc;stroke-width:1.2"
       aria-label="." />
    <path
       d="m 118.49591,25.630282 q -2.48443,0 -4.48681,-1.18659 -1.9653,-1.1866 -3.11481,-3.18898 -1.14951,-2.03946 -1.14951,-4.59805 0,-2.52152 1.14951,-4.56098 1.14951,-2.03946 3.11481,-3.2260504 1.9653,-1.22368 4.41265,-1.22368 2.00238,0 3.55979,0.7787 1.59449,0.74163 2.59568,2.1136304 1.03827,1.372 1.33491,3.26313 v 5.63633 q -0.33372,1.89114 -1.372,3.30022 -1.00119,1.372 -2.55859,2.1507 -1.52033,0.74162 -3.48563,0.74162 z m 0.25957,-1.77989 q 2.96649,0 4.7093,-1.9653 1.7799,-2.00238 1.7799,-5.22843 0,-2.18779 -0.81579,-3.78227 -0.7787,-1.63157 -2.26195,-2.52152 -1.48324,-0.9270304 -3.44854,-0.9270304 -2.03946,0 -3.63395,0.9270304 -1.5574,0.92703 -2.48443,2.5586 -0.88995,1.63156 -0.88995,3.70811 0,2.11362 0.88995,3.74519 0.92703,1.63157 2.52151,2.55859 1.59449,0.92703 3.63395,0.92703 z m 6.41503,1.40908 v -4.63513 l 0.4079,-4.22725 -0.4079,-4.19016 V 8.0167616 h 1.89114 V 25.259472 Z"
       id="text29"
       style="font-size:37.0811px;font-family:Outfit;-inkscape-font-specification:'Outfit, @wght=200';font-variation-settings:'wght' 200;text-align:center;text-anchor:middle;fill:#15d2bc;fill-rule:evenodd;stroke:#15d2bc;stroke-width:1.2"
       aria-label="a" />
    <path
       d="M 130.10812,25.264722 V 8.0220121 h 1.85405 V 25.264722 Z m 0.92703,-21.2474699 q -0.63038,0 -1.07536,-0.44498 -0.40789,-0.48205 -0.40789,-1.112429 0,-0.630379 0.40789,-1.038271 0.44498,-0.44497299 1.07536,-0.44497299 0.63037,0 1.07535,0.44497299 0.44497,0.407892 0.44497,1.038271 0,0.630379 -0.44497,1.112429 -0.44498,0.44498 -1.07535,0.44498 z"
       id="text30"
       style="font-size:37.0811px;font-family:Outfit;-inkscape-font-specification:'Outfit, @wght=200';font-variation-settings:'wght' 200;text-align:center;text-anchor:middle;fill:#15d2bc;fill-rule:evenodd;stroke:#15d2bc;stroke-width:1.2"
       aria-label="i" />
  </g>
</svg>
