<?xml version="1.0" encoding="UTF-8" standalone="no"?>
<!-- Created with Inkscape (http://www.inkscape.org/) -->

<svg
   width="1000"
   height="350"
   viewBox="0 0 264.58333 92.604167"
   version="1.1"
   id="svg1"
   sodipodi:docname="ausma.ai_simple_logo_final_011.svg"
   inkscape:version="1.4.2 (ebf0e940d0, 2025-05-08)"
   inkscape:export-filename="exported svg/ausma.ai_simple_logo_final_011.png"
   inkscape:export-xdpi="96"
   inkscape:export-ydpi="96"
   xmlns:inkscape="http://www.inkscape.org/namespaces/inkscape"
   xmlns:sodipodi="http://sodipodi.sourceforge.net/DTD/sodipodi-0.dtd"
   xmlns:xlink="http://www.w3.org/1999/xlink"
   xmlns="http://www.w3.org/2000/svg"
   xmlns:svg="http://www.w3.org/2000/svg">
  <sodipodi:namedview
     id="namedview1"
     pagecolor="#505050"
     bordercolor="#ffffff"
     borderopacity="1"
     inkscape:showpageshadow="0"
     inkscape:pageopacity="0"
     inkscape:pagecheckerboard="1"
     inkscape:deskcolor="#505050"
     inkscape:document-units="mm"
     inkscape:zoom="0.70710678"
     inkscape:cx="487.19658"
     inkscape:cy="340.11836"
     inkscape:window-width="1536"
     inkscape:window-height="888"
     inkscape:window-x="0"
     inkscape:window-y="0"
     inkscape:window-maximized="1"
     inkscape:current-layer="g30"
     showguides="true">
    <inkscape:page
       x="0"
       y="0"
       width="264.58334"
       height="92.604164"
       id="page2"
       margin="0"
       bleed="0" />
  </sodipodi:namedview>
  <defs
     id="defs1">
    <linearGradient
       id="linearGradient6"
       inkscape:collect="always">
      <stop
         style="stop-color:#194454;stop-opacity:1;"
         offset="0.12597834"
         id="stop6" />
      <stop
         style="stop-color:#41b8aa;stop-opacity:1;"
         offset="0.49204466"
         id="stop8" />
      <stop
         style="stop-color:#f2c658;stop-opacity:1;"
         offset="0.64390999"
         id="stop9" />
      <stop
         style="stop-color:#fa994a;stop-opacity:1;"
         offset="0.73276109"
         id="stop10" />
      <stop
         style="stop-color:#f03630;stop-opacity:1;"
         offset="0.8501628"
         id="stop7" />
    </linearGradient>
    <linearGradient
       id="linearGradient1"
       inkscape:collect="always">
      <stop
         style="stop-color:#194454;stop-opacity:1;"
         offset="0.14488831"
         id="stop1" />
      <stop
         style="stop-color:#41b8aa;stop-opacity:1;"
         offset="0.4482047"
         id="stop3" />
      <stop
         style="stop-color:#f2c658;stop-opacity:1;"
         offset="0.56652051"
         id="stop4" />
      <stop
         style="stop-color:#fa994a;stop-opacity:1;"
         offset="0.63166279"
         id="stop5" />
      <stop
         style="stop-color:#f03630;stop-opacity:1;"
         offset="0.79079783"
         id="stop2" />
    </linearGradient>
    <linearGradient
       inkscape:collect="always"
       xlink:href="#linearGradient1"
       id="linearGradient5"
       gradientUnits="userSpaceOnUse"
       x1="35.000004"
       y1="63.038448"
       x2="35.000004"
       y2="-5.0384326"
       gradientTransform="translate(11.500001,11.00337)" />
    <linearGradient
       inkscape:collect="always"
       xlink:href="#linearGradient6"
       id="linearGradient7"
       x1="46.499992"
       y1="91.70652"
       x2="46.499992"
       y2="1.2934806"
       gradientUnits="userSpaceOnUse" />
  </defs>
  <g
     id="g30"
     inkscape:groupmode="layer"
     style="display:inline">
    <path
       style="display:inline;fill:url(#linearGradient5);fill-opacity:1;fill-rule:evenodd;stroke:none;stroke-width:1.7;stroke-opacity:1"
       d="m 79.913104,52.87949 c 1.12495,-5.018977 2.05584,-19.132902 -9.70096,-30.58521 -5.98043,-5.825543 -14.51503,-9.648655 -24.52739,-9.57719 -10.60434,0.07569 -21.69992,6.237463 -27.325823,14.967092 -13.8511298,21.492619 1.04071,39.566954 1.04071,39.566954 0,0 8.990813,-9.029936 27.302403,-9.463218 15.46924,-0.366027 26.32115,9.502668 26.32115,9.502668 l -1.48357,-5.946074 5.82548,-0.632737 c 0,0 -8.84237,-11.159926 -30.10785,-11.21637 -17.46007,-0.04634 -26.895723,6.89695 -26.895723,6.89695 0,0 -5.20265,-11.600691 2.356453,-24.23418 4.52338,-7.55991 13.80042,-13.08805 22.82937,-13.316856 7.61117,-0.192877 15.3288,2.924156 20.60989,8.077392 9.73998,9.504181 8.17283,21.917653 8.17283,21.917653 z"
       id="path8-7"
       sodipodi:nodetypes="cssscscccscssscc" />
    <ellipse
       style="fill:none;fill-rule:evenodd;stroke:url(#linearGradient7);stroke-width:6;stroke-dasharray:none"
       id="path37"
       cx="46.5"
       cy="46.5"
       rx="42.20652"
       ry="42.206524" />
    <g
       id="g1"
       style="display:inline"
       transform="translate(90.27256,-62.408318)">
      <path
         d="m 23.358112,121.36618 q -2.765749,0 -4.994862,-1.222 -2.187831,-1.22202 -3.467507,-3.28416 -1.279675,-2.10033 -1.279675,-4.73529 0,-2.59678 1.279675,-4.69711 1.279676,-2.10033 3.467507,-3.32234 2.187833,-1.26019 4.912303,-1.26019 2.229113,0 3.962866,0.80194 1.775034,0.76375 2.88959,2.1767 1.155836,1.41295 1.486075,3.36053 v 5.80456 q -0.371519,1.94757 -1.527355,3.39872 -1.114556,1.41295 -2.84831,2.21489 -1.692474,0.76375 -3.880307,0.76375 z m 0.28896,-1.83301 q 3.302388,0 5.242541,-2.02396 1.981433,-2.06214 1.981433,-5.38448 0,-2.25308 -0.908156,-3.89516 -0.866878,-1.68027 -2.518072,-2.59677 -1.651194,-0.9547 -3.839026,-0.9547 -2.270391,0 -4.045426,0.9547 -1.733753,0.9547 -2.76575,2.63495 -0.990716,1.68027 -0.990716,3.81879 0,2.17671 0.990716,3.85698 1.031997,1.68025 2.80703,2.63495 1.775034,0.9547 4.045426,0.9547 z m 7.141415,1.45113 v -4.77348 l 0.454078,-4.3534 -0.454078,-4.31524 v -4.31522 h 2.105272 v 17.75734 z"
         id="text23"
         style="font-size:37.0811px;font-family:Outfit;-inkscape-font-specification:'Outfit, @wght=200';font-variation-settings:'wght' 200;text-align:center;text-anchor:middle;fill:#15d2bc;fill-rule:evenodd;stroke:#15d2bc;stroke-width:1.28487"
         aria-label="a" />
      <path
         d="m 44.118715,121.43249 q -2.311672,0 -4.127985,-0.99289 -1.816314,-0.99288 -2.84831,-2.74952 -0.990717,-1.75664 -0.990717,-4.0479 v -10.34891 h 2.105272 v 10.27252 q 0,1.79484 0.701758,3.16959 0.743038,1.33658 2.063993,2.10034 1.320955,0.76376 3.095989,0.76376 2.64191,0 4.210545,-1.64208 1.609914,-1.68027 1.609914,-4.39161 v -10.27252 h 2.105273 v 10.34891 q 0,2.29126 -1.031997,4.0479 -0.990716,1.75664 -2.807029,2.74952 -1.775035,0.99289 -4.086706,0.99289 z"
         id="text24"
         style="font-size:37.0811px;font-family:Outfit;-inkscape-font-specification:'Outfit, @wght=200';font-variation-settings:'wght' 200;text-align:center;text-anchor:middle;fill:#15d2bc;fill-rule:evenodd;stroke:#15d2bc;stroke-width:1.28487"
         aria-label="u" />
      <path
         d="m 61.78135,121.40513 c -1.045756,0 -2.036472,-0.12729 -2.972149,-0.38188 -0.908158,-0.28005 -1.747514,-0.66192 -2.518072,-1.14563 -0.743036,-0.48371 -1.403515,-1.0438 -1.981432,-1.68027 l 1.403514,-1.29839 c 0.770558,0.94197 1.664955,1.64208 2.683191,2.10033 1.045756,0.4328 2.187832,0.6492 3.426228,0.6492 1.431035,0 2.55935,-0.26732 3.384948,-0.80194 0.825597,-0.53464 1.238395,-1.28566 1.238395,-2.25309 0,-0.8656 -0.261439,-1.54025 -0.784317,-2.02396 -0.522878,-0.50917 -1.210876,-0.90377 -2.063993,-1.18382 -0.825597,-0.28004 -1.706233,-0.54735 -2.64191,-0.80194 -0.908156,-0.25459 -1.788794,-0.56009 -2.641911,-0.91651 -0.825597,-0.35642 -1.499835,-0.85287 -2.022713,-1.48932 -0.522877,-0.63647 -0.784316,-1.48934 -0.784316,-2.55859 0,-0.94197 0.261439,-1.76937 0.784316,-2.48221 0.522878,-0.71284 1.252156,-1.2602 2.187833,-1.64208 0.963196,-0.40734 2.091512,-0.611 3.384948,-0.611 1.431034,0 2.71071,0.22913 3.839026,0.68738 0.02979,0.0359 0.748805,0.25501 2.525978,1.22199 l -1.061596,1.53727 c -0.885167,-0.48761 -1.354303,-0.69712 -2.28998,-1.079 -0.935676,-0.40734 -1.981432,-0.611 -3.137268,-0.611 -1.375995,0 -2.421751,0.26732 -3.137269,0.80194 -0.715517,0.53463 -1.073276,1.22201 -1.073276,2.06215 0,0.78921 0.261439,1.41294 0.784317,1.8712 0.522878,0.45825 1.197116,0.81467 2.022713,1.06925 0.853117,0.25459 1.733753,0.50918 2.641911,0.76377 0.935677,0.22913 1.816313,0.53462 2.64191,0.9165 0.853117,0.38188 1.541114,0.90378 2.063993,1.56571 0.52288,0.66192 0.78432,1.5657 0.78432,2.71133 0,1.52751 -0.605439,2.74952 -1.816316,3.66603 -1.210877,0.89105 -2.83455,1.33658 -4.871023,1.33658 z"
         id="text25"
         style="font-size:37.0811px;font-family:Outfit;-inkscape-font-specification:'Outfit, @wght=200';font-variation-settings:'wght' 200;text-align:center;text-anchor:middle;fill:#15d2bc;fill-rule:evenodd;stroke:#15d2bc;stroke-width:1.28487"
         aria-label="s"
         sodipodi:nodetypes="scccccsssccccssscsccccsssscccsscs" />
      <path
         d="M 71.892185,121.42455 V 110.7517 h 2.105263 v 10.67285 z m 13.457156,0 v -11.03629 c 0,-1.60389 -0.52287,-2.88954 -1.568625,-3.85697 -1.018233,-0.96742 -2.325416,-1.45113 -3.921569,-1.45113 -1.073271,0 -2.050214,0.2164 -2.930855,0.64919 -0.880626,0.43279 -1.596141,1.04379 -2.146531,1.83302 -0.52287,0.78921 -0.784313,1.70572 -0.784313,2.74952 l -2.108002,-0.28544 c 0,-1.37476 0.748163,-2.65966 1.618952,-3.73043 0.764352,-0.93986 1.862226,-1.65908 3.0071,-2.17056 1.160036,-0.51825 2.380465,-0.84013 3.756443,-0.84013 1.375992,0 2.600618,0.28005 3.673889,0.84013 1.073271,0.56008 1.926382,1.3493 2.559344,2.36765 0.632939,1.01834 0.94942,2.21489 0.94942,3.58965 v 11.34179 z m 13.45722,0 v -11.03629 c 0,-1.60389 -0.522873,-2.88954 -1.568632,-3.85697 -1.018239,-0.96742 -2.325441,-1.45113 -3.921592,-1.45113 -1.073278,0 -2.063987,0.2164 -2.97215,0.64919 -0.880633,0.43279 -1.582392,1.04379 -2.105266,1.83302 -0.522885,0.78921 -0.784327,1.70572 -0.784327,2.74952 l -1.279664,-0.22913 c 0.0275,-1.40022 0.371534,-2.59677 1.031992,-3.58965 0.687999,-1.01835 1.596151,-1.80757 2.724467,-2.36765 1.128316,-0.56008 2.380479,-0.84013 3.756467,-0.84013 1.375999,0 2.600631,0.28005 3.673909,0.84013 1.073278,0.56008 1.926392,1.36203 2.559353,2.40583 0.660472,1.01835 0.990712,2.21489 0.990712,3.58966 v 11.3036 z"
         id="text26"
         style="font-size:37.0811px;font-family:Outfit;-inkscape-font-specification:'Outfit, @wght=200';font-variation-settings:'wght' 200;text-align:center;text-anchor:middle;fill:#15d2bc;fill-rule:evenodd;stroke:#15d2bc;stroke-width:1.28487"
         aria-label="m"
         sodipodi:nodetypes="ccccccscsscccaasssscccscscscccssscscc" />
      <path
         d="m 113.87306,121.02042 q -2.76575,0 -4.99486,-1.22201 -2.18783,-1.22201 -3.4675,-3.28416 -1.27969,-2.10033 -1.27969,-4.73528 0,-2.59678 1.27969,-4.69711 1.27967,-2.10033 3.4675,-3.32234 2.18784,-1.2602 4.9123,-1.2602 2.22912,0 3.96286,0.80194 1.77504,0.76377 2.8896,2.17672 1.15583,1.41295 1.48607,3.36052 v 5.80455 q -0.37152,1.94759 -1.52735,3.39872 -1.11456,1.41295 -2.84832,2.21489 -1.69247,0.76376 -3.8803,0.76376 z m 0.28896,-1.83302 q 3.30239,0 5.24254,-2.02395 1.98143,-2.06215 1.98143,-5.38448 0,-2.25309 -0.90815,-3.89516 -0.86688,-1.68027 -2.51807,-2.59678 -1.65119,-0.9547 -3.83903,-0.9547 -2.27039,0 -4.04542,0.9547 -1.73376,0.9547 -2.76575,2.63497 -0.99072,1.68025 -0.99072,3.81878 0,2.1767 0.99072,3.85697 1.03199,1.68027 2.80702,2.63496 1.77504,0.95469 4.04543,0.95469 z m 7.14142,1.45114 v -4.77347 l 0.45407,-4.35342 -0.45407,-4.31522 v -4.31523 h 2.10527 v 17.75734 z"
         id="text27"
         style="font-size:37.0811px;font-family:Outfit;-inkscape-font-specification:'Outfit, @wght=200';font-variation-settings:'wght' 200;text-align:center;text-anchor:middle;fill:#15d2bc;fill-rule:evenodd;stroke:#15d2bc;stroke-width:1.28487"
         aria-label="a" />
      <path
         d="m 128.65568,121.02042 q -0.82559,0 -1.40351,-0.57281 -0.57791,-0.57282 -0.57791,-1.29839 0,-0.80194 0.57791,-1.33658 0.57792,-0.53462 1.40351,-0.53462 0.86688,0 1.4448,0.53462 0.57791,0.53464 0.57791,1.33658 0,0.72557 -0.57791,1.29839 -0.57792,0.57281 -1.4448,0.57281 z"
         id="text28"
         style="font-size:37.0811px;font-family:Outfit;-inkscape-font-specification:'Outfit, @wght=200';font-variation-settings:'wght' 200;text-align:center;text-anchor:middle;fill:#15d2bc;fill-rule:evenodd;stroke:#15d2bc;stroke-width:1.28487"
         aria-label="." />
      <path
         d="m 142.72677,121.40002 q -2.76575,0 -4.99486,-1.222 -2.18783,-1.22202 -3.4675,-3.28416 -1.27968,-2.10033 -1.27968,-4.73529 0,-2.59678 1.27968,-4.69711 1.27967,-2.10033 3.4675,-3.32233 2.18783,-1.2602 4.9123,-1.2602 2.22911,0 3.96287,0.80194 1.77504,0.76376 2.8896,2.17671 1.15583,1.41295 1.48606,3.36052 v 5.80456 q -0.37151,1.94758 -1.52735,3.39872 -1.11456,1.41294 -2.84831,2.21489 -1.69248,0.76375 -3.88031,0.76375 z m 0.28896,-1.83301 q 3.30239,0 5.24254,-2.02396 1.98144,-2.06214 1.98144,-5.38448 0,-2.25309 -0.90816,-3.89516 -0.86687,-1.68026 -2.51807,-2.59677 -1.65119,-0.9547 -3.83903,-0.9547 -2.27039,0 -4.04543,0.9547 -1.73374,0.9547 -2.76574,2.63496 -0.99072,1.68026 -0.99072,3.81878 0,2.17671 0.99072,3.85697 1.032,1.68027 2.80702,2.63496 1.77504,0.9547 4.04543,0.9547 z m 7.14142,1.45113 v -4.77347 l 0.45408,-4.35342 -0.45408,-4.31522 v -4.31523 h 2.10527 v 17.75734 z"
         id="text29"
         style="font-size:37.0811px;font-family:Outfit;-inkscape-font-specification:'Outfit, @wght=200';font-variation-settings:'wght' 200;text-align:center;text-anchor:middle;fill:#15d2bc;fill-rule:evenodd;stroke:#15d2bc;stroke-width:1.28487"
         aria-label="a" />
      <path
         d="M 155.53941,121.00134 V 103.244 h 2.06399 v 17.75734 z m 1.032,-21.881626 q -0.70176,0 -1.19712,-0.458261 -0.45408,-0.496437 -0.45408,-1.145631 0,-0.649193 0.45408,-1.06926 0.49536,-0.458253 1.19712,-0.458253 0.70175,0 1.19711,0.458253 0.49536,0.420067 0.49536,1.06926 0,0.649194 -0.49536,1.145631 -0.49536,0.458261 -1.19711,0.458261 z"
         id="text30"
         style="font-size:37.0811px;font-family:Outfit;-inkscape-font-specification:'Outfit, @wght=200';font-variation-settings:'wght' 200;text-align:center;text-anchor:middle;fill:#15d2bc;fill-rule:evenodd;stroke:#15d2bc;stroke-width:1.28487"
         aria-label="i" />
    </g>
  </g>
</svg>
