<?xml version="1.0" encoding="UTF-8" standalone="no"?>
<!-- Uploaded to: SVG Repo, www.svgrepo.com, Generator: SVG Repo Mixer Tools -->

<svg
   width="800px"
   height="800px"
   viewBox="0 0 24 24"
   fill="none"
   version="1.1"
   id="svg5"
   sodipodi:docname="book-bookmark-svgrepo-com.svg"
   inkscape:version="1.4.2 (ebf0e940d0, 2025-05-08)"
   xmlns:inkscape="http://www.inkscape.org/namespaces/inkscape"
   xmlns:sodipodi="http://sodipodi.sourceforge.net/DTD/sodipodi-0.dtd"
   xmlns="http://www.w3.org/2000/svg"
   xmlns:svg="http://www.w3.org/2000/svg">
  <defs
     id="defs5" />
  <sodipodi:namedview
     id="namedview5"
     pagecolor="#505050"
     bordercolor="#ffffff"
     borderopacity="1"
     inkscape:showpageshadow="0"
     inkscape:pageopacity="0"
     inkscape:pagecheckerboard="1"
     inkscape:deskcolor="#505050"
     inkscape:zoom="0.2634375"
     inkscape:cx="483.98576"
     inkscape:cy="586.47687"
     inkscape:window-width="1536"
     inkscape:window-height="888"
     inkscape:window-x="0"
     inkscape:window-y="0"
     inkscape:window-maximized="1"
     inkscape:current-layer="svg5" />
  <path
     d="M4 8C4 5.17157 4 3.75736 4.87868 2.87868C5.75736 2 7.17157 2 10 2H14C16.8284 2 18.2426 2 19.1213 2.87868C20 3.75736 20 5.17157 20 8V16C20 18.8284 20 20.2426 19.1213 21.1213C18.2426 22 16.8284 22 14 22H10C7.17157 22 5.75736 22 4.87868 21.1213C4 20.2426 4 18.8284 4 16V8Z"
     stroke="#1C274D"
     stroke-width="1.5"
     id="path1"
     style="fill:none;fill-opacity:1;stroke:#8b8b8b;stroke-opacity:1" />
  <path
     d="M19.8978 16H7.89778C6.96781 16 6.50282 16 6.12132 16.1022C5.08604 16.3796 4.2774 17.1883 4 18.2235"
     stroke="#1C274D"
     stroke-width="1.5"
     id="path2"
     style="fill:none;fill-opacity:1;stroke:#8b8b8b;stroke-opacity:1" />
  <path
     d="M8 7H16"
     stroke="#1C274D"
     stroke-width="1.5"
     stroke-linecap="round"
     id="path3"
     style="fill:none;fill-opacity:1;stroke:#8b8b8b;stroke-opacity:1" />
  <path
     d="M8 10.5H13"
     stroke="#1C274D"
     stroke-width="1.5"
     stroke-linecap="round"
     id="path4"
     style="fill:none;fill-opacity:1;stroke:#8b8b8b;stroke-opacity:1" />
  <path
     d="M13 16V19.5309C13 19.8065 13 19.9443 12.9051 20C12.8103 20.0557 12.6806 19.9941 12.4211 19.8708L11.1789 19.2808C11.0911 19.2391 11.0472 19.2182 11 19.2182C10.9528 19.2182 10.9089 19.2391 10.8211 19.2808L9.57889 19.8708C9.31943 19.9941 9.18971 20.0557 9.09485 20C9 19.9443 9 19.8065 9 19.5309V16.45"
     stroke="#1C274D"
     stroke-width="1.5"
     stroke-linecap="round"
     id="path5"
     style="fill:none;fill-opacity:1;stroke:#8b8b8b;stroke-opacity:1" />
</svg>
