        <svg
          width="800px"
          height="800px"
          viewBox="0 0 24 24"
          fill="none"
          version="1.1"
          id="svg2"
          sodipodi:docname="add-circle-svgrepo-com.svg"
          inkscape:version="1.4.2 (ebf0e940d0, 2025-05-08)"
          xmlns:inkscape="http://www.inkscape.org/namespaces/inkscape"
          xmlns:sodipodi="http://sodipodi.sourceforge.net/DTD/sodipodi-0.dtd"
          xmlns="http://www.w3.org/2000/svg"
          xmlns:svg="http://www.w3.org/2000/svg"
        >
          <defs id="defs2" />
          <sodipodi:namedview
            id="namedview2"
            pagecolor="#505050"
            bordercolor="#ffffff"
            borderopacity="1"
            inkscape:showpageshadow="0"
            inkscape:pageopacity="0"
            inkscape:pagecheckerboard="1"
            inkscape:deskcolor="#505050"
            inkscape:zoom="1.00125"
            inkscape:cx="400"
            inkscape:cy="400"
            inkscape:window-width="1920"
            inkscape:window-height="1052"
            inkscape:window-x="0"
            inkscape:window-y="0"
            inkscape:window-maximized="1"
            inkscape:current-layer="svg2"
          />
          <path
            d="M12.75 9C12.75 8.58579 12.4142 8.25 12 8.25C11.5858 8.25 11.25 8.58579 11.25 9L11.25 11.25H9C8.58579 11.25 8.25 11.5858 8.25 12C8.25 12.4142 8.58579 12.75 9 12.75H11.25V15C11.25 15.4142 11.5858 15.75 12 15.75C12.4142 15.75 12.75 15.4142 12.75 15L12.75 12.75H15C15.4142 12.75 15.75 12.4142 15.75 12C15.75 11.5858 15.4142 11.25 15 11.25H12.75V9Z"
            fill="#1C274C"
            id="path1"
            style="fill: #8b8b8b; fill-opacity: 1"
          />
          <path
            fill-rule="evenodd"
            clip-rule="evenodd"
            d="M12 1.25C6.06294 1.25 1.25 6.06294 1.25 12C1.25 17.9371 6.06294 22.75 12 22.75C17.9371 22.75 22.75 17.9371 22.75 12C22.75 6.06294 17.9371 1.25 12 1.25ZM2.75 12C2.75 6.89137 6.89137 2.75 12 2.75C17.1086 2.75 21.25 6.89137 21.25 12C21.25 17.1086 17.1086 21.25 12 21.25C6.89137 21.25 2.75 17.1086 2.75 12Z"
            fill="#1C274C"
            id="path2"
            style="fill: #8b8b8b; fill-opacity: 1"
          />
        </svg>