<?xml version="1.0" encoding="UTF-8" standalone="no"?>
<!-- Uploaded to: SVG Repo, www.svgrepo.com, Generator: SVG Repo Mixer Tools -->

<svg
   width="800px"
   height="800px"
   viewBox="0 0 24 24"
   fill="none"
   version="1.1"
   id="svg1"
   sodipodi:docname="pen-svgrepo-com.svg"
   inkscape:version="1.4.2 (ebf0e940d0, 2025-05-08)"
   xmlns:inkscape="http://www.inkscape.org/namespaces/inkscape"
   xmlns:sodipodi="http://sodipodi.sourceforge.net/DTD/sodipodi-0.dtd"
   xmlns="http://www.w3.org/2000/svg"
   xmlns:svg="http://www.w3.org/2000/svg">
  <defs
     id="defs1" />
  <sodipodi:namedview
     id="namedview1"
     pagecolor="#505050"
     bordercolor="#ffffff"
     borderopacity="1"
     inkscape:showpageshadow="0"
     inkscape:pageopacity="0"
     inkscape:pagecheckerboard="1"
     inkscape:deskcolor="#505050"
     inkscape:zoom="1.05375"
     inkscape:cx="400"
     inkscape:cy="400"
     inkscape:window-width="1920"
     inkscape:window-height="1052"
     inkscape:window-x="0"
     inkscape:window-y="0"
     inkscape:window-maximized="1"
     inkscape:current-layer="svg1" />
  <path
     d="M14.3601 4.07866L15.2869 3.15178C16.8226 1.61607 19.3125 1.61607 20.8482 3.15178C22.3839 4.68748 22.3839 7.17735 20.8482 8.71306L19.9213 9.63993M14.3601 4.07866C14.3601 4.07866 14.4759 6.04828 16.2138 7.78618C17.9517 9.52407 19.9213 9.63993 19.9213 9.63993M14.3601 4.07866L5.83882 12.5999C5.26166 13.1771 4.97308 13.4656 4.7249 13.7838C4.43213 14.1592 4.18114 14.5653 3.97634 14.995C3.80273 15.3593 3.67368 15.7465 3.41556 16.5208L2.32181 19.8021M19.9213 9.63993L11.4001 18.1612C10.8229 18.7383 10.5344 19.0269 10.2162 19.2751C9.84082 19.5679 9.43469 19.8189 9.00498 20.0237C8.6407 20.1973 8.25352 20.3263 7.47918 20.5844L4.19792 21.6782M4.19792 21.6782L3.39584 21.9456C3.01478 22.0726 2.59466 21.9734 2.31063 21.6894C2.0266 21.4053 1.92743 20.9852 2.05445 20.6042L2.32181 19.8021M4.19792 21.6782L2.32181 19.8021"
     stroke="#1C274C"
     stroke-width="1.5"
     id="path1"
     style="stroke:#8b8b8b;stroke-opacity:1" />
</svg>
